<?xml version="1.0" encoding="UTF-8" standalone="no"?>
<!-- Created with Inkscape (http://www.inkscape.org/) -->

<svg
   xmlns:dc="http://purl.org/dc/elements/1.1/"
   xmlns:cc="http://creativecommons.org/ns#"
   xmlns:rdf="http://www.w3.org/1999/02/22-rdf-syntax-ns#"
   xmlns:svg="http://www.w3.org/2000/svg"
   xmlns="http://www.w3.org/2000/svg"
   xmlns:sodipodi="http://sodipodi.sourceforge.net/DTD/sodipodi-0.dtd"
   xmlns:inkscape="http://www.inkscape.org/namespaces/inkscape"
   width="147.95979mm"
   height="139.52985mm"
   viewBox="0 0 524.26698 494.39709"
   id="svg2"
   version="1.1"
   inkscape:version="0.91 r13725"
   sodipodi:docname="drawing.svg">
  <defs
     id="defs4" />
  <sodipodi:namedview
     id="base"
     pagecolor="#ffffff"
     bordercolor="#666666"
     borderopacity="1.0"
     inkscape:pageopacity="0.0"
     inkscape:pageshadow="2"
     inkscape:zoom="0.35"
     inkscape:cx="-135.7239"
     inkscape:cy="230.05661"
     inkscape:document-units="px"
     inkscape:current-layer="layer1"
     showgrid="false"
     inkscape:window-width="1366"
     inkscape:window-height="719"
     inkscape:window-x="0"
     inkscape:window-y="27"
     inkscape:window-maximized="1"
     fit-margin-top="0"
     fit-margin-left="0"
     fit-margin-right="0"
     fit-margin-bottom="0" />
  <metadata
     id="metadata7">
    <rdf:RDF>
      <cc:Work
         rdf:about="">
        <dc:format>image/svg+xml</dc:format>
        <dc:type
           rdf:resource="http://purl.org/dc/dcmitype/StillImage" />
        <dc:title></dc:title>
      </cc:Work>
    </rdf:RDF>
  </metadata>
  <g
     inkscape:label="Camada 1"
     inkscape:groupmode="layer"
     id="layer1"
     transform="translate(-126.43819,-268.0217)">
    <path
       style="fill:#000000;fill-opacity:1;stroke:#000000;stroke-width:2.94771171;stroke-linejoin:round;stroke-miterlimit:4;stroke-dasharray:none;stroke-opacity:1"
       d="M 387.55162,269.49748 A 260.65909,245.72469 0 0 0 127.91295,515.86076 260.65909,245.72469 0 0 0 388.91099,760.94475 260.65909,245.72469 0 0 0 649.2313,515.22014 l -0.004,-1.2832 A 260.65909,245.72469 0 0 0 387.55162,269.49748 Z m 0.19922,48.28125 a 209.5199,197.44264 0 0 1 210.33789,196.41016 l 0.002,1.03125 A 209.5199,197.44264 0 0 1 388.84459,712.66155 209.5199,197.44264 0 0 1 179.05162,515.73381 209.5199,197.44264 0 0 1 387.75084,317.77873 Z"
       id="path4140"
       inkscape:connector-curvature="0" />
  </g>
</svg>
