<?xml version="1.0" encoding="UTF-8" standalone="no"?>
<svg
   xmlns:dc="http://purl.org/dc/elements/1.1/"
   xmlns:cc="http://creativecommons.org/ns#"
   xmlns:rdf="http://www.w3.org/1999/02/22-rdf-syntax-ns#"
   xmlns:svg="http://www.w3.org/2000/svg"
   xmlns="http://www.w3.org/2000/svg"
   xmlns:sodipodi="http://sodipodi.sourceforge.net/DTD/sodipodi-0.dtd"
   xmlns:inkscape="http://www.inkscape.org/namespaces/inkscape"
   version="1.1"
   width="105.97mm"
   height="105.97mm"
   viewBox="0 0 10597 10597"
   preserveAspectRatio="xMidYMid"
   fill-rule="evenodd"
   clip-path="url(#presentation_clip_path)"
   stroke-width="28.222"
   stroke-linejoin="round"
   xml:space="preserve"
   id="svg4702"
   inkscape:version="0.91 r13725"
   sodipodi:docname="color_wheel.svg"><metadata
     id="metadata4888"><rdf:RDF><cc:Work
         rdf:about=""><dc:format>image/svg+xml</dc:format><dc:type
           rdf:resource="http://purl.org/dc/dcmitype/StillImage" /><dc:title /></cc:Work></rdf:RDF></metadata><sodipodi:namedview
     pagecolor="#ffffff"
     bordercolor="#666666"
     borderopacity="1"
     objecttolerance="10"
     gridtolerance="10"
     guidetolerance="10"
     inkscape:pageopacity="0"
     inkscape:pageshadow="2"
     inkscape:window-width="1080"
     inkscape:window-height="1896"
     id="namedview4886"
     showgrid="false"
     inkscape:zoom="0.8888639"
     inkscape:cx="387.87872"
     inkscape:cy="109.33022"
     inkscape:window-x="0"
     inkscape:window-y="24"
     inkscape:window-maximized="1"
     inkscape:current-layer="svg4702" /><defs
     class="ClipPathGroup"
     id="defs4704"><clipPath
       id="presentation_clip_path"
       clipPathUnits="userSpaceOnUse"><rect
         x="0"
         y="0"
         width="10597"
         height="10597"
         id="rect4707" /></clipPath></defs><defs
     class="TextShapeIndex"
     id="defs4709" /><defs
     class="EmbeddedBulletChars"
     id="defs4711"><g
       id="bullet-char-template57356"
       transform="scale(0.00048828125,-0.00048828125)"><path
         d="M 580,1141 L 1163,571 580,0 -4,571 580,1141 Z"
         id="path4714" /></g><g
       id="bullet-char-template57354"
       transform="scale(0.00048828125,-0.00048828125)"><path
         d="M 8,1128 L 1137,1128 1137,0 8,0 8,1128 Z"
         id="path4717" /></g><g
       id="bullet-char-template10146"
       transform="scale(0.00048828125,-0.00048828125)"><path
         d="M 174,0 L 602,739 174,1481 1456,739 174,0 Z M 1358,739 L 309,1346 659,739 1358,739 Z"
         id="path4720" /></g><g
       id="bullet-char-template10132"
       transform="scale(0.00048828125,-0.00048828125)"><path
         d="M 2015,739 L 1276,0 717,0 1260,543 174,543 174,936 1260,936 717,1481 1274,1481 2015,739 Z"
         id="path4723" /></g><g
       id="bullet-char-template10007"
       transform="scale(0.00048828125,-0.00048828125)"><path
         d="M 0,-2 C -7,14 -16,27 -25,37 L 356,567 C 262,823 215,952 215,954 215,979 228,992 255,992 264,992 276,990 289,987 310,991 331,999 354,1012 L 381,999 492,748 772,1049 836,1024 860,1049 C 881,1039 901,1025 922,1006 886,937 835,863 770,784 769,783 710,716 594,584 L 774,223 C 774,196 753,168 711,139 L 727,119 C 717,90 699,76 672,76 641,76 570,178 457,381 L 164,-76 C 142,-110 111,-127 72,-127 30,-127 9,-110 8,-76 1,-67 -2,-52 -2,-32 -2,-23 -1,-13 0,-2 Z"
         id="path4726" /></g><g
       id="bullet-char-template10004"
       transform="scale(0.00048828125,-0.00048828125)"><path
         d="M 285,-33 C 182,-33 111,30 74,156 52,228 41,333 41,471 41,549 55,616 82,672 116,743 169,778 240,778 293,778 328,747 346,684 L 369,508 C 377,444 397,411 428,410 L 1163,1116 C 1174,1127 1196,1133 1229,1133 1271,1133 1292,1118 1292,1087 L 1292,965 C 1292,929 1282,901 1262,881 L 442,47 C 390,-6 338,-33 285,-33 Z"
         id="path4729" /></g><g
       id="bullet-char-template9679"
       transform="scale(0.00048828125,-0.00048828125)"><path
         d="M 813,0 C 632,0 489,54 383,161 276,268 223,411 223,592 223,773 276,916 383,1023 489,1130 632,1184 813,1184 992,1184 1136,1130 1245,1023 1353,916 1407,772 1407,592 1407,412 1353,268 1245,161 1136,54 992,0 813,0 Z"
         id="path4732" /></g><g
       id="bullet-char-template8226"
       transform="scale(0.00048828125,-0.00048828125)"><path
         d="M 346,457 C 273,457 209,483 155,535 101,586 74,649 74,723 74,796 101,859 155,911 209,963 273,989 346,989 419,989 480,963 531,910 582,859 608,796 608,723 608,648 583,586 532,535 482,483 420,457 346,457 Z"
         id="path4735" /></g><g
       id="bullet-char-template8211"
       transform="scale(0.00048828125,-0.00048828125)"><path
         d="M -4,459 L 1135,459 1135,606 -4,606 -4,459 Z"
         id="path4738" /></g></defs><defs
     class="TextEmbeddedBitmaps"
     id="defs4740" /><g
     id="g4742"><g
       id="id2"
       class="Master_Slide"><g
         id="bg-id2"
         class="Background" /><g
         id="bo-id2"
         class="BackgroundObjects" /></g></g><g
     id="g6696"><g
       id="g5830"><g
         id="g4756"
         class="com.sun.star.drawing.EllipseShape"><g
           id="id3"><path
             style="fill:#ffffff;stroke:none"
             inkscape:connector-curvature="0"
             id="path4759"
             d="m 7324,10187 c -900,373 -1750,485 -2715,358 C 3643,10418 2851,10090 2078,9496 1305,8903 783,8223 410,7323 37,6423 -75,5573 53,4607 180,3641 508,2849 1101,2076 1694,1304 2374,782 3274,409 4174,36 5024,-76 5990,51 c 966,127 1758,456 2531,1049 773,593 1295,1273 1668,2173 372,900 484,1750 357,2716 -127,966 -455,1758 -1048,2531 -593,772 -1273,1294 -2174,1667 l 0,0 z" /></g></g><g
         id="g4761"
         class="com.sun.star.drawing.EllipseShape"><g
           id="id4"><path
             style="fill:#ffff00;stroke:none"
             inkscape:connector-curvature="0"
             id="path4764"
             d="M 5299,5298 4609,51 c 483,-63 898,-63 1381,0 l -691,5247 z" /></g></g><g
         id="g4766"
         class="com.sun.star.drawing.EllipseShape"><g
           id="id5"><path
             style="fill:#0000ff;stroke:none"
             inkscape:connector-curvature="0"
             id="path4769"
             d="m 5299,5298 691,5247 c -483,63 -898,63 -1381,0 l 690,-5247 z" /></g></g><g
         id="g4771"
         class="com.sun.star.drawing.EllipseShape"><g
           id="id6"><path
             style="fill:#ffc000;stroke:none"
             inkscape:connector-curvature="0"
             id="path4774"
             d="M 5299,5298 5990,51 c 483,64 884,171 1334,358 L 5299,5298 Z" /></g></g><g
         id="g4776"
         class="com.sun.star.drawing.EllipseShape"><g
           id="id7"><path
             style="fill:#003fff;stroke:none"
             inkscape:connector-curvature="0"
             id="path4779"
             d="m 5299,5298 -690,5247 c -483,-64 -885,-171 -1335,-358 L 5299,5298 Z" /></g></g><g
         id="g4781"
         class="com.sun.star.drawing.EllipseShape"><g
           id="id8"><path
             style="fill:#ff8000;stroke:none"
             inkscape:connector-curvature="0"
             id="path4784"
             d="M 5299,5298 7324,409 c 451,186 810,394 1197,691 L 5299,5298 Z" /></g></g><g
         id="g4786"
         class="com.sun.star.drawing.EllipseShape"><g
           id="id9"><path
             style="fill:#007fff;stroke:none"
             inkscape:connector-curvature="0"
             id="path4789"
             d="M 5299,5298 3274,10187 C 2824,10001 2464,9793 2078,9496 L 5299,5298 Z" /></g></g><g
         id="g4791"
         class="com.sun.star.drawing.EllipseShape"><g
           id="id10"><path
             style="fill:#ff4000;stroke:none"
             inkscape:connector-curvature="0"
             id="path4794"
             d="M 5299,5298 8521,1100 c 386,296 680,590 977,976 L 5299,5298 Z" /></g></g><g
         id="g4796"
         class="com.sun.star.drawing.EllipseShape"><g
           id="id11"><path
             style="fill:#00bfff;stroke:none"
             inkscape:connector-curvature="0"
             id="path4799"
             d="M 5299,5298 2078,9496 C 1691,9200 1397,8906 1101,8520 L 5299,5298 Z" /></g></g><g
         id="g4801"
         class="com.sun.star.drawing.EllipseShape"><g
           id="id12"><path
             style="fill:#ff0000;stroke:none"
             inkscape:connector-curvature="0"
             id="path4804"
             d="M 5299,5298 9498,2076 c 296,387 504,747 691,1197 l 0,0 -4890,2025 z" /></g></g><g
         id="g4806"
         class="com.sun.star.drawing.EllipseShape"><g
           id="id13"><path
             style="fill:#00ffff;stroke:none"
             inkscape:connector-curvature="0"
             id="path4809"
             d="M 5299,5298 1101,8520 C 804,8133 597,7773 410,7323 L 5299,5298 Z" /></g></g><g
         id="g4811"
         class="com.sun.star.drawing.EllipseShape"><g
           id="id14"><path
             style="fill:#ff003f;stroke:none"
             inkscape:connector-curvature="0"
             id="path4814"
             d="m 5299,5298 4890,-2025 c 186,450 293,851 357,1334 l -5247,691 z" /></g></g><g
         id="g4816"
         class="com.sun.star.drawing.EllipseShape"><g
           id="id15"><path
             style="fill:#00ffc0;stroke:none"
             inkscape:connector-curvature="0"
             id="path4819"
             d="m 5299,5298 -4889,2025 0,0 C 224,6873 116,6472 53,5989 l 5246,-691 z" /></g></g><g
         id="g4821"
         class="com.sun.star.drawing.EllipseShape"><g
           id="id16"><path
             style="fill:#ff007f;stroke:none"
             inkscape:connector-curvature="0"
             id="path4824"
             d="m 5299,5298 5247,-691 c 64,483 64,899 0,1382 L 5299,5298 Z" /></g></g><g
         id="g4826"
         class="com.sun.star.drawing.EllipseShape"><g
           id="id17"><path
             style="fill:#00ff80;stroke:none"
             inkscape:connector-curvature="0"
             id="path4829"
             d="M 5299,5298 53,5989 c -64,-483 -64,-899 0,-1382 l 5246,691 z" /></g></g><g
         id="g4831"
         class="com.sun.star.drawing.EllipseShape"><g
           id="id18"><path
             style="fill:#ff00bf;stroke:none"
             inkscape:connector-curvature="0"
             id="path4834"
             d="m 5299,5298 5247,691 c -64,483 -171,884 -357,1334 L 5299,5298 Z" /></g></g><g
         id="g4836"
         class="com.sun.star.drawing.EllipseShape"><g
           id="id19"><path
             style="fill:#00ff40;stroke:none"
             inkscape:connector-curvature="0"
             id="path4839"
             d="M 5299,5298 53,4607 c 63,-483 171,-884 357,-1334 l 4889,2025 z" /></g></g><g
         id="g4841"
         class="com.sun.star.drawing.EllipseShape"><g
           id="id20"><path
             style="fill:#ff00ff;stroke:none"
             inkscape:connector-curvature="0"
             id="path4844"
             d="m 5299,5298 4890,2025 c -187,450 -395,810 -691,1197 L 5299,5298 Z" /></g></g><g
         id="g4846"
         class="com.sun.star.drawing.EllipseShape"><g
           id="id21"><path
             style="fill:#00ff00;stroke:none"
             inkscape:connector-curvature="0"
             id="path4849"
             d="M 5299,5298 410,3273 c 187,-450 394,-810 691,-1197 l 4198,3222 z" /></g></g><g
         id="g4851"
         class="com.sun.star.drawing.EllipseShape"><g
           id="id22"><path
             style="fill:#c000ff;stroke:none"
             inkscape:connector-curvature="0"
             id="path4854"
             d="m 5299,5298 4199,3222 c -297,386 -591,680 -977,976 L 5299,5298 Z" /></g></g><g
         id="g4856"
         class="com.sun.star.drawing.EllipseShape"><g
           id="id23"><path
             style="fill:#3fff00;stroke:none"
             inkscape:connector-curvature="0"
             id="path4859"
             d="M 5299,5298 1101,2076 c 296,-386 590,-680 977,-976 l 3221,4198 z" /></g></g><g
         id="g4861"
         class="com.sun.star.drawing.EllipseShape"><g
           id="id24"><path
             style="fill:#8000ff;stroke:none"
             inkscape:connector-curvature="0"
             id="path4864"
             d="m 5299,5298 3222,4198 c -387,297 -746,505 -1197,691 L 5299,5298 Z" /></g></g><g
         id="g4866"
         class="com.sun.star.drawing.EllipseShape"><g
           id="id25"><path
             style="fill:#7fff00;stroke:none"
             inkscape:connector-curvature="0"
             id="path4869"
             d="M 5299,5298 2078,1100 C 2464,803 2824,595 3274,409 l 2025,4889 z" /></g></g><g
         id="g4871"
         class="com.sun.star.drawing.EllipseShape"><g
           id="id26"><path
             style="fill:#4000ff;stroke:none"
             inkscape:connector-curvature="0"
             id="path4874"
             d="m 5299,5298 2025,4889 0,0 c -450,187 -851,294 -1334,358 L 5299,5298 Z" /></g></g><g
         id="g4876"
         class="com.sun.star.drawing.EllipseShape"><g
           id="id27"><path
             style="fill:#bfff00;stroke:none"
             inkscape:connector-curvature="0"
             id="path4879"
             d="M 5299,5298 3274,409 C 3724,222 4126,115 4609,51 l 690,5247 z" /></g></g></g><g
       transform="matrix(2.6017507,0,0,2.6017507,-8488.7687,-8488.4764)"
       class="com.sun.star.drawing.EllipseShape"
       id="g4881"><g
         id="id28"><path
           d="m 5975,6929 c -300,124 -584,162 -906,119 -322,-42 -586,-151 -844,-349 -257,-198 -431,-425 -556,-725 -124,-300 -161,-583 -119,-905 42,-322 152,-587 350,-844 197,-258 424,-432 724,-556 300,-125 584,-162 906,-119 322,42 586,151 844,349 257,198 431,425 556,725 124,300 161,583 119,905 -43,322 -152,586 -350,844 -197,258 -424,432 -724,556 l 0,0 z"
           id="path4884"
           inkscape:connector-curvature="0"
           style="fill:#ffffff;stroke:none" /></g></g></g></svg>